<?xml version="1.0" encoding="UTF-8"?>
<svg version="1.1" xmlns="http://www.w3.org/2000/svg" width="268" height="30">
<path d="M0 0 C1.43655854 -0.08131463 2.8744483 -0.13933559 4.3125 -0.1875 C5.51326172 -0.23970703 5.51326172 -0.23970703 6.73828125 -0.29296875 C9 -0 9 -0 10.7734375 1.3203125 C12.64006931 3.87652804 12.32635853 5.93222981 12 9 C10 11 10 11 8.12060547 11.22705078 C7.37697754 11.21657715 6.63334961 11.20610352 5.8671875 11.1953125 C4.65869141 11.18564453 4.65869141 11.18564453 3.42578125 11.17578125 C2.58402344 11.15902344 1.74226563 11.14226563 0.875 11.125 C-0.39923828 11.11146484 -0.39923828 11.11146484 -1.69921875 11.09765625 C-3.79959884 11.07405647 -5.89983444 11.03818483 -8 11 C-8.625 8.625 -8.625 8.625 -9 6 C-6.23776722 3.23776722 -3.79293383 3.42143709 0 3 C0 2.01 0 1.02 0 0 Z M-4 7 C-4 7.33 -4 7.66 -4 8 C-0.37 8 3.26 8 7 8 C7 7.67 7 7.34 7 7 C3.37 7 -0.26 7 -4 7 Z " fill="#0E122B" transform="translate(115,3)"/>
<path d="M0 0 C0.68964844 -0.01224609 1.37929687 -0.02449219 2.08984375 -0.03710938 C3.89477494 -0.04238695 5.69917842 0.06565542 7.5 0.1875 C9.5 2.1875 9.5 2.1875 9.625 4.8125 C9.58375 5.59625 9.5425 6.38 9.5 7.1875 C6.86 7.5175 4.22 7.8475 1.5 8.1875 C1.5 9.1775 1.5 10.1675 1.5 11.1875 C-0.12418745 11.26840971 -1.74951745 11.32664995 -3.375 11.375 C-4.73238281 11.42720703 -4.73238281 11.42720703 -6.1171875 11.48046875 C-7.29667969 11.33544922 -7.29667969 11.33544922 -8.5 11.1875 C-10.5 8.1875 -10.5 8.1875 -10.25 4.5625 C-10.0025 3.44875 -9.755 2.335 -9.5 1.1875 C-6.46576019 -0.3296199 -3.32495206 0.00310743 0 0 Z M-4.5 3.1875 C-4.5 3.5175 -4.5 3.8475 -4.5 4.1875 C-1.53 4.1875 1.44 4.1875 4.5 4.1875 C4.5 3.8575 4.5 3.5275 4.5 3.1875 C1.53 3.1875 -1.44 3.1875 -4.5 3.1875 Z " fill="#0E122B" transform="translate(188.5,2.8125)"/>
<path d="M0 0 C0.68964844 -0.01224609 1.37929687 -0.02449219 2.08984375 -0.03710938 C3.89477494 -0.04238695 5.69917842 0.06565542 7.5 0.1875 C9.5 2.1875 9.5 2.1875 9.625 4.8125 C9.58375 5.59625 9.5425 6.38 9.5 7.1875 C6.86 7.5175 4.22 7.8475 1.5 8.1875 C1.5 9.1775 1.5 10.1675 1.5 11.1875 C-0.12418745 11.26840971 -1.74951745 11.32664995 -3.375 11.375 C-4.73238281 11.42720703 -4.73238281 11.42720703 -6.1171875 11.48046875 C-7.29667969 11.33544922 -7.29667969 11.33544922 -8.5 11.1875 C-10.5 8.1875 -10.5 8.1875 -10.25 4.5625 C-10.0025 3.44875 -9.755 2.335 -9.5 1.1875 C-6.46576019 -0.3296199 -3.32495206 0.00310743 0 0 Z M-4.5 3.1875 C-4.5 3.5175 -4.5 3.8475 -4.5 4.1875 C-1.53 4.1875 1.44 4.1875 4.5 4.1875 C4.5 3.8575 4.5 3.5275 4.5 3.1875 C1.53 3.1875 -1.44 3.1875 -4.5 3.1875 Z " fill="#0E122B" transform="translate(85.5,2.8125)"/>
<path d="M0 0 C1.24910156 -0.00515625 2.49820313 -0.0103125 3.78515625 -0.015625 C6.9375 0.25 6.9375 0.25 8.9375 2.25 C9.26502234 4.96454956 9.0683425 7.50230759 8.9375 10.25 C6.89483571 12.29266429 2.80058566 11.43507944 0 11.4375 C-0.74185547 11.44974609 -1.48371094 11.46199219 -2.24804688 11.47460938 C-4.18763629 11.47988478 -6.1267371 11.37188902 -8.0625 11.25 C-10.0625 9.25 -10.0625 9.25 -10.375 5.75 C-10.271875 4.595 -10.16875 3.44 -10.0625 2.25 C-6.37155532 -0.21062979 -4.39205805 -0.01816777 0 0 Z M-5.0625 4.25 C-5.0625 5.57 -5.0625 6.89 -5.0625 8.25 C-2.0925 8.25 0.8775 8.25 3.9375 8.25 C4.2675 6.93 4.5975 5.61 4.9375 4.25 C1.6375 4.25 -1.6625 4.25 -5.0625 4.25 Z " fill="#0E122B" transform="translate(228.0625,2.75)"/>
<path d="M0 0 C0.68964844 -0.00386719 1.37929687 -0.00773438 2.08984375 -0.01171875 C7.24666707 -0.00166646 7.24666707 -0.00166646 9.5 1.125 C9.5 3.105 9.5 5.085 9.5 7.125 C6.86 7.455 4.22 7.785 1.5 8.125 C1.83 9.115 2.16 10.105 2.5 11.125 C0.68757948 11.15187279 -1.12495233 11.17133715 -2.9375 11.1875 C-3.94683594 11.19910156 -4.95617187 11.21070313 -5.99609375 11.22265625 C-8.5 11.125 -8.5 11.125 -9.5 10.125 C-9.57179964 8.60571962 -9.58392007 7.08332518 -9.5625 5.5625 C-9.55347656 4.73621094 -9.54445313 3.90992188 -9.53515625 3.05859375 C-9.52355469 2.42050781 -9.51195312 1.78242187 -9.5 1.125 C-6.46570323 -0.39214839 -3.32398333 -0.01863916 0 0 Z M-4.5 3.125 C-4.5 3.455 -4.5 3.785 -4.5 4.125 C-1.53 4.125 1.44 4.125 4.5 4.125 C4.5 3.795 4.5 3.465 4.5 3.125 C1.53 3.125 -1.44 3.125 -4.5 3.125 Z " fill="#0E122B" transform="translate(9.5,2.875)"/>
<path d="M0 0 C1.23556641 0.01740234 1.23556641 0.01740234 2.49609375 0.03515625 C3.32238281 0.04417969 4.14867187 0.05320313 5 0.0625 C5.63808594 0.07410156 6.27617187 0.08570313 6.93359375 0.09765625 C6.93359375 1.08765625 6.93359375 2.07765625 6.93359375 3.09765625 C9.24359375 3.75765625 11.55359375 4.41765625 13.93359375 5.09765625 C13.93359375 7.07765625 13.93359375 9.05765625 13.93359375 11.09765625 C7.99359375 11.09765625 2.05359375 11.09765625 -4.06640625 11.09765625 C-4.06640625 10.10765625 -4.06640625 9.11765625 -4.06640625 8.09765625 C-3.40640625 7.76765625 -2.74640625 7.43765625 -2.06640625 7.09765625 C-2.72640625 6.43765625 -3.38640625 5.77765625 -4.06640625 5.09765625 C-3.31779097 0.15679541 -3.31779097 0.15679541 0 0 Z " fill="#0E122B" transform="translate(254.06640625,2.90234375)"/>
<path d="M0 0 C1.23556641 0.01740234 1.23556641 0.01740234 2.49609375 0.03515625 C3.32238281 0.04417969 4.14867187 0.05320313 5 0.0625 C5.63808594 0.07410156 6.27617188 0.08570313 6.93359375 0.09765625 C6.93359375 1.08765625 6.93359375 2.07765625 6.93359375 3.09765625 C9.24359375 3.75765625 11.55359375 4.41765625 13.93359375 5.09765625 C14.31578142 6.75380282 14.64754477 8.42222649 14.93359375 10.09765625 C13.93359375 11.09765625 13.93359375 11.09765625 10.1171875 11.1953125 C8.53512693 11.18863714 6.95308216 11.176675 5.37109375 11.16015625 C4.56478516 11.15564453 3.75847656 11.15113281 2.92773438 11.14648438 C0.92965619 11.13466143 -1.06838408 11.11672539 -3.06640625 11.09765625 C-2.78796875 10.13859375 -2.78796875 10.13859375 -2.50390625 9.16015625 C-2.35953125 8.47953125 -2.21515625 7.79890625 -2.06640625 7.09765625 C-2.39640625 6.76765625 -2.72640625 6.43765625 -3.06640625 6.09765625 C-3.19140625 3.59765625 -3.19140625 3.59765625 -3.06640625 1.09765625 C-2.06640625 0.09765625 -2.06640625 0.09765625 0 0 Z " fill="#0E122B" transform="translate(45.06640625,2.90234375)"/>
<path d="M0 0 C1.1446875 -0.00515625 2.289375 -0.0103125 3.46875 -0.015625 C6.5 0.25 6.5 0.25 9.5 2.25 C9.79296875 4.4140625 9.79296875 4.4140625 9.6875 6.875 C9.66042969 7.69226563 9.63335937 8.50953125 9.60546875 9.3515625 C9.57066406 9.97804688 9.53585938 10.60453125 9.5 11.25 C7.85 11.25 6.2 11.25 4.5 11.25 C4.5 8.94 4.5 6.63 4.5 4.25 C1.53 4.25 -1.44 4.25 -4.5 4.25 C-4.5 6.56 -4.5 8.87 -4.5 11.25 C-6.15 11.25 -7.8 11.25 -9.5 11.25 C-9.58096803 9.79257537 -9.63917774 8.33387193 -9.6875 6.875 C-9.72230469 6.06289062 -9.75710937 5.25078125 -9.79296875 4.4140625 C-9.69628906 3.69992187 -9.59960938 2.98578125 -9.5 2.25 C-5.92878282 -0.13081145 -4.23325367 -0.01906871 0 0 Z " fill="#0E122B" transform="translate(155.5,2.75)"/>
<path d="M0 0 C1.1446875 -0.00515625 2.289375 -0.0103125 3.46875 -0.015625 C6.5 0.25 6.5 0.25 9.5 2.25 C9.79296875 4.4140625 9.79296875 4.4140625 9.6875 6.875 C9.66042969 7.69226563 9.63335937 8.50953125 9.60546875 9.3515625 C9.57066406 9.97804688 9.53585938 10.60453125 9.5 11.25 C7.85 11.25 6.2 11.25 4.5 11.25 C4.5 8.94 4.5 6.63 4.5 4.25 C1.53 4.25 -1.44 4.25 -4.5 4.25 C-4.5 6.56 -4.5 8.87 -4.5 11.25 C-6.15 11.25 -7.8 11.25 -9.5 11.25 C-9.58096803 9.79257537 -9.63917774 8.33387193 -9.6875 6.875 C-9.72230469 6.06289062 -9.75710937 5.25078125 -9.79296875 4.4140625 C-9.69628906 3.69992187 -9.59960938 2.98578125 -9.5 2.25 C-5.92878282 -0.13081145 -4.23325367 -0.01906871 0 0 Z " fill="#0E122B" transform="translate(30.5,2.75)"/>
<path d="M0 0 C1.65 0 3.3 0 5 0 C5 0.99 5 1.98 5 3 C6.65 3 8.3 3 10 3 C10 3.99 10 4.98 10 6 C8.35 6 6.7 6 5 6 C5 8.64 5 11.28 5 14 C3.35 14 1.7 14 0 14 C0 11.36 0 8.72 0 6 C-0.66 6 -1.32 6 -2 6 C-2 5.01 -2 4.02 -2 3 C-1.34 3 -0.68 3 0 3 C0 2.01 0 1.02 0 0 Z " fill="#0E122B" transform="translate(168,0)"/>
<path d="M0 0 C1.65 0 3.3 0 5 0 C5 0.99 5 1.98 5 3 C6.32 3 7.64 3 9 3 C9 3.99 9 4.98 9 6 C7.68 6 6.36 6 5 6 C5 8.64 5 11.28 5 14 C3.35 14 1.7 14 0 14 C0 11.36 0 8.72 0 6 C-0.66 6 -1.32 6 -2 6 C-2 5.01 -2 4.02 -2 3 C-1.34 3 -0.68 3 0 3 C0 2.01 0 1.02 0 0 Z " fill="#0E122B" transform="translate(98,0)"/>
<path d="M0 0 C1.98 0 3.96 0 6 0 C6 4.62 6 9.24 6 14 C4.02 14 2.04 14 0 14 C0 9.38 0 4.76 0 0 Z " fill="#0E122B" transform="translate(68,0)"/>
<path d="M0 0 C1.98 0 3.96 0 6 0 C6 4.62 6 9.24 6 14 C4.02 14 2.04 14 0 14 C0 9.38 0 4.76 0 0 Z " fill="#0E122B" transform="translate(61,0)"/>
<path d="M0 0 C0 0.99 0 1.98 0 3 C-1.65 3.66 -3.3 4.32 -5 5 C-5 6.98 -5 8.96 -5 11 C-6.98 11 -8.96 11 -11 11 C-11.48076923 4.75 -11.48076923 4.75 -9.4375 1.5625 C-6.18129203 -0.5248128 -3.79004984 -0.2915423 0 0 Z " fill="#0E122B" transform="translate(210,3)"/>
<path d="M0 0 C1.65 0 3.3 0 5 0 C5 4.62 5 9.24 5 14 C3.35 14 1.7 14 0 14 C0 9.38 0 4.76 0 0 Z " fill="#0E122B" transform="translate(211,0)"/>
<path d="M0 0 C1.65 0 3.3 0 5 0 C5 4.62 5 9.24 5 14 C3.35 14 1.7 14 0 14 C0 9.38 0 4.76 0 0 Z " fill="#0E122B" transform="translate(139,0)"/>
<path d="M0 0 C0 0.99 0 1.98 0 3 C-1.32 3.33 -2.64 3.66 -4 4 C-4.33 6.31 -4.66 8.62 -5 11 C-6.65 11 -8.3 11 -10 11 C-10.36010591 3.67784643 -10.36010591 3.67784643 -8.9375 1 C-5.97912322 -0.52690415 -3.26283401 -0.18468872 0 0 Z " fill="#0E122B" transform="translate(249,3)"/>
<path d="M0 0 C1.134375 0.020625 2.26875 0.04125 3.4375 0.0625 C3.4375 3.0325 3.4375 6.0025 3.4375 9.0625 C3.1075 9.0625 2.7775 9.0625 2.4375 9.0625 C2.1075 7.4125 1.7775 5.7625 1.4375 4.0625 C1.1075 5.7125 0.7775 7.3625 0.4375 9.0625 C-1.22916667 9.0625 -2.89583333 9.0625 -4.5625 9.0625 C-4.66015625 2.91015625 -4.66015625 2.91015625 -4.5625 1.0625 C-3.5625 0.0625 -3.5625 0.0625 0 0 Z " fill="#0E122B" transform="translate(83.5625,19.9375)"/>
<path d="M0 0 C1.32 0 2.64 0 4 0 C4 2.64 4 5.28 4 8 C2.35 7.67 0.7 7.34 -1 7 C-1.04254356 5.00045254 -1.04080783 2.99958364 -1 1 C-0.67 0.67 -0.34 0.34 0 0 Z M1 1 C1 2.98 1 4.96 1 7 C1.66 7 2.32 7 3 7 C3 5.02 3 3.04 3 1 C2.34 1 1.68 1 1 1 Z " fill="#0E122B" transform="translate(70,20)"/>
<path d="M0 0 C2.475 0.495 2.475 0.495 5 1 C5 2.98 5 4.96 5 7 C3.35 7.33 1.7 7.66 0 8 C0 5.36 0 2.72 0 0 Z M1 1 C1 2.98 1 4.96 1 7 C1.66 7 2.32 7 3 7 C3 5.02 3 3.04 3 1 C2.34 1 1.68 1 1 1 Z " fill="#0E122B" transform="translate(185,20)"/>
<path d="M0 0 C1.32 0 2.64 0 4 0 C4 1.98 4 3.96 4 6 C2.35 6 0.7 6 -1 6 C-1.042721 4.33388095 -1.04063832 2.66617115 -1 1 C-0.67 0.67 -0.34 0.34 0 0 Z M1 3 C2 5 2 5 2 5 Z " fill="#0E122B" transform="translate(229,22)"/>
<path d="M0 0 C0.66 0 1.32 0 2 0 C2 0.66 2 1.32 2 2 C2.66 2.33 3.32 2.66 4 3 C4.625 5.5625 4.625 5.5625 5 8 C3.35 8 1.7 8 0 8 C0 5.36 0 2.72 0 0 Z " fill="#0E122B" transform="translate(37,20)"/>
<path d="M0 0 C2.475 0.495 2.475 0.495 5 1 C5 2.65 5 4.3 5 6 C3.35 6 1.7 6 0 6 C0 4.02 0 2.04 0 0 Z " fill="#0E122B" transform="translate(28,22)"/>
<path d="M0 0 C1.32 0 2.64 0 4 0 C4 0.99 4 1.98 4 3 C3.01 3 2.02 3 1 3 C1.99 3.33 2.98 3.66 4 4 C4 4.66 4 5.32 4 6 C2.35 5.67 0.7 5.34 -1 5 C-0.67 3.35 -0.34 1.7 0 0 Z " fill="#0E122B" transform="translate(195,22)"/>
<path d="M0 0 C2.475 0.495 2.475 0.495 5 1 C4.67 2.65 4.34 4.3 4 6 C2.68 6 1.36 6 0 6 C0 4.02 0 2.04 0 0 Z M2 1 C1.67 2.32 1.34 3.64 1 5 C1.66 5 2.32 5 3 5 C2.67 3.68 2.34 2.36 2 1 Z " fill="#0E122B" transform="translate(212,22)"/>
<path d="M0 0 C1.65 0 3.3 0 5 0 C4.34 2.64 3.68 5.28 3 8 C2.01 7.67 1.02 7.34 0 7 C0.66 7 1.32 7 2 7 C1.34 4.69 0.68 2.38 0 0 Z " fill="#0E122B" transform="translate(54,22)"/>
<path d="M0 0 C1.32 0 2.64 0 4 0 C4 0.66 4 1.32 4 2 C3.34 2 2.68 2 2 2 C2 2.66 2 3.32 2 4 C2.66 4 3.32 4 4 4 C4 4.66 4 5.32 4 6 C2.35 5.67 0.7 5.34 -1 5 C-0.67 3.35 -0.34 1.7 0 0 Z " fill="#0E122B" transform="translate(204,22)"/>
<path d="M0 0 C1.32 0 2.64 0 4 0 C4 1.98 4 3.96 4 6 C2.68 6 1.36 6 0 6 C0 4.02 0 2.04 0 0 Z " fill="#0E122B" transform="translate(261,22)"/>
<path d="M0 0 C1.32 0 2.64 0 4 0 C4 0.99 4 1.98 4 3 C3.01 3 2.02 3 1 3 C1 3.66 1 4.32 1 5 C1.99 4.67 2.98 4.34 4 4 C4 4.66 4 5.32 4 6 C2.68 6 1.36 6 0 6 C0 4.02 0 2.04 0 0 Z " fill="#0E122B" transform="translate(139,22)"/>
<path d="M0 0 C1.32 0 2.64 0 4 0 C4 0.99 4 1.98 4 3 C3.01 3 2.02 3 1 3 C1 3.66 1 4.32 1 5 C1.99 4.67 2.98 4.34 4 4 C4 4.66 4 5.32 4 6 C2.68 6 1.36 6 0 6 C0 4.02 0 2.04 0 0 Z " fill="#0E122B" transform="translate(101,22)"/>
<path d="M0 0 C1.32 0 2.64 0 4 0 C4 0.99 4 1.98 4 3 C3.01 3 2.02 3 1 3 C1 3.66 1 4.32 1 5 C1.99 4.67 2.98 4.34 4 4 C4 4.66 4 5.32 4 6 C2.68 6 1.36 6 0 6 C0 4.02 0 2.04 0 0 Z " fill="#0E122B" transform="translate(46,22)"/>
<path d="M0 0 C1.32 0 2.64 0 4 0 C4 1.98 4 3.96 4 6 C2.68 6 1.36 6 0 6 C0 4.02 0 2.04 0 0 Z M1 1 C1 2.32 1 3.64 1 5 C1.66 5 2.32 5 3 5 C3 3.68 3 2.36 3 1 C2.34 1 1.68 1 1 1 Z " fill="#0E122B" transform="translate(245,22)"/>
<path d="M0 0 C1.32 0 2.64 0 4 0 C4 1.98 4 3.96 4 6 C2.68 6 1.36 6 0 6 C0 4.02 0 2.04 0 0 Z M1 1 C1 2.32 1 3.64 1 5 C1.66 5 2.32 5 3 5 C3 3.68 3 2.36 3 1 C2.34 1 1.68 1 1 1 Z " fill="#0E122B" transform="translate(162,22)"/>
<path d="M0 0 C0.66 0 1.32 0 2 0 C2 2.64 2 5.28 2 8 C1.34 8 0.68 8 0 8 C0 5.36 0 2.72 0 0 Z " fill="#0E122B" transform="translate(116,20)"/>
<path d="M0 0 C0.66 1.32 1.32 2.64 2 4 C2.66 2.68 3.32 1.36 4 0 C4 1.98 4 3.96 4 6 C2.68 6 1.36 6 0 6 C0 4.02 0 2.04 0 0 Z " fill="#0E122B" transform="translate(12,22)"/>
<path d="M0 0 C1.32 0 2.64 0 4 0 C4 1.98 4 3.96 4 6 C3.34 4.68 2.68 3.36 2 2 C1.34 3.32 0.68 4.64 0 6 C0 4.02 0 2.04 0 0 Z " fill="#0E122B" transform="translate(123,22)"/>
<path d="M0 0 C1.32 0.33 2.64 0.66 4 1 C3.34 1 2.68 1 2 1 C2 2.65 2 4.3 2 6 C1.34 6 0.68 6 0 6 C0 4.02 0 2.04 0 0 Z " fill="#0E122B" transform="translate(221,22)"/>
<path d="M0 0 C1.32 0 2.64 0 4 0 C3.67 0.66 3.34 1.32 3 2 C2.34 1.67 1.68 1.34 1 1 C1 2.32 1 3.64 1 5 C1.99 4.67 2.98 4.34 4 4 C4 4.66 4 5.32 4 6 C2.68 6 1.36 6 0 6 C0 4.02 0 2.04 0 0 Z " fill="#0E122B" transform="translate(92,22)"/>
<path d="M0 0 C0.33 0.66 0.66 1.32 1 2 C1.66 2.33 2.32 2.66 3 3 C2.34 3 1.68 3 1 3 C1 4.32 1 5.64 1 7 C1.66 7.33 2.32 7.66 3 8 C2.01 8 1.02 8 0 8 C-1.125 2.25 -1.125 2.25 0 0 Z " fill="#0E122B" transform="translate(238,20)"/>
<path d="M0 0 C0.33 0.66 0.66 1.32 1 2 C1.66 2.33 2.32 2.66 3 3 C2.34 3 1.68 3 1 3 C1 4.32 1 5.64 1 7 C1.66 7.33 2.32 7.66 3 8 C2.01 8 1.02 8 0 8 C-1.125 2.25 -1.125 2.25 0 0 Z " fill="#0E122B" transform="translate(132,20)"/>
<path d="M0 0 C0.66 0 1.32 0 2 0 C2 1.98 2 3.96 2 6 C1.34 6 0.68 6 0 6 C0 4.02 0 2.04 0 0 Z " fill="#0E122B" transform="translate(155,22)"/>
<path d="M0 0 C1.65 0 3.3 0 5 0 C4.01 0.495 4.01 0.495 3 1 C3 3.31 3 5.62 3 8 C2.67 8 2.34 8 2 8 C2 5.69 2 3.38 2 1 C1.34 0.67 0.68 0.34 0 0 Z " fill="#0E122B" transform="translate(2,20)"/>
<path d="M0 0 C0.99 0.33 1.98 0.66 3 1 C2.34 1 1.68 1 1 1 C1 2.65 1 4.3 1 6 C0.67 6 0.34 6 0 6 C0 4.02 0 2.04 0 0 Z " fill="#0E122B" transform="translate(254,22)"/>
<path d="M0 0 C0.99 0.33 1.98 0.66 3 1 C2.34 1 1.68 1 1 1 C1 2.65 1 4.3 1 6 C0.67 6 0.34 6 0 6 C0 4.02 0 2.04 0 0 Z " fill="#0E122B" transform="translate(171,22)"/>
<path d="M0 0 C0.99 0.33 1.98 0.66 3 1 C2.34 1 1.68 1 1 1 C1 2.65 1 4.3 1 6 C0.67 6 0.34 6 0 6 C0 4.02 0 2.04 0 0 Z " fill="#0E122B" transform="translate(148,22)"/>
<path d="M0 0 C0.99 0.33 1.98 0.66 3 1 C2.34 1 1.68 1 1 1 C1 2.65 1 4.3 1 6 C0.67 6 0.34 6 0 6 C0 4.02 0 2.04 0 0 Z " fill="#0E122B" transform="translate(21,22)"/>
<path d="M0 0 C2 1 2 1 2 1 Z " fill="#0E122B" transform="translate(155,20)"/>
</svg>
